<?xml version="1.0" encoding="UTF-8" standalone="no"?>
<!DOCTYPE svg PUBLIC "-//W3C//DTD SVG 1.1//EN" "http://www.w3.org/Graphics/SVG/1.1/DTD/svg11.dtd">
<svg width="100%" height="100%" viewBox="0 0 1245 244" version="1.1" xmlns="http://www.w3.org/2000/svg" xmlns:xlink="http://www.w3.org/1999/xlink" xml:space="preserve" xmlns:serif="http://www.serif.com/" style="fill-rule:evenodd;clip-rule:evenodd;stroke-linejoin:round;stroke-miterlimit:2;">
    <g id="アートボード1" transform="matrix(0.867524,0,0,0.71966,-2.69233,-413.95)">
        <rect x="3.103" y="575.202" width="1434.19" height="338.865" style="fill:none;"/>
        <g id="_3291_tech_uni.eps" serif:id="3291_tech_uni.eps" transform="matrix(0.810194,0,0,0.97666,141.077,741.123)">
            <g transform="matrix(1,0,0,1,-260.417,-260.417)">
                <g transform="matrix(4.16667,0,0,4.16667,0,0)">
                    <path d="M23.307,101.254L101.192,101.254L101.192,24.246L23.307,24.246L23.307,101.254ZM99.781,99.85L24.712,99.85L24.712,25.656L99.781,25.656L99.781,99.85Z" style="fill-rule:nonzero;"/>
                    <path d="M32.491,91.997L24.71,99.85L24.71,25.656L32.491,33.353L32.491,91.997Z" style="fill-rule:nonzero;"/>
                    <path d="M92.008,91.997L99.778,99.85L99.778,25.656L92.008,33.353L92.008,91.997Z" style="fill-rule:nonzero;"/>
                    <path d="M62.339,39.412C62.339,39.412 64.748,41.237 65.243,44.954C65.744,48.676 68.737,48.856 69.481,48.934C70.217,49.018 74.657,49.643 76.335,50.591C78.031,51.54 79.43,52.705 79.349,55.389C79.259,58.06 79.349,65.789 79.349,68.352C79.349,70.91 80.09,74.633 80.877,75.948C80.877,75.948 78.647,74.633 77.746,68.887C76.828,63.147 77.077,60.926 77.077,59.183C77.077,57.454 75.179,55.587 72.871,55.587L68.773,55.587C66.915,55.587 65.393,57.406 65.147,58.733C64.891,60.054 64.477,61.911 64.405,63.189C64.321,64.468 64.192,65.699 65.017,67.11C65.843,68.515 68.656,72.892 70.967,86.359C70.967,86.359 66.089,74.093 64.774,71.859C64.099,70.719 63.234,70.16 62.322,70.16C61.409,70.16 60.592,70.706 59.911,71.859C58.59,74.093 53.721,86.359 53.721,86.359C56.029,72.892 58.836,68.515 59.665,67.11C60.493,65.699 60.364,64.468 60.286,63.189C60.199,61.911 59.785,60.054 59.542,58.733C59.29,57.406 57.768,55.587 55.897,55.587L51.824,55.587C49.515,55.587 47.603,57.454 47.603,59.183C47.603,60.926 47.849,63.147 46.948,68.887C46.039,74.633 43.808,75.948 43.808,75.948C44.595,74.633 45.333,70.91 45.333,68.352C45.333,65.789 45.42,58.06 45.333,55.389C45.252,52.705 46.66,51.54 48.35,50.591C50.041,49.643 54.465,49.018 55.207,48.934C55.948,48.856 58.944,48.676 59.431,44.954C59.929,41.237 62.339,39.412 62.339,39.412Z" style="fill-rule:nonzero;"/>
                </g>
            </g>
        </g>
        <g transform="matrix(0.566433,0,0,0.682814,-125.868,151.878)">
            <path d="M1045.41,866.915C1078.42,866.915 1090.07,867.562 1091.68,867.562C1093.95,867.562 1094.27,867.239 1094.27,864.974C1094.27,863.356 1093.63,855.914 1093.63,834.558L1093.63,787.965C1093.63,766.609 1094.27,759.167 1094.27,757.549C1094.27,755.284 1093.95,754.961 1091.68,754.961C1090.07,754.961 1078.42,755.608 1045.41,755.608L993.967,755.608L993.967,727.134L1087.48,727.134C1117.57,727.134 1127.28,727.781 1129.22,727.781C1131.16,727.781 1131.48,727.457 1131.48,725.192L1131.48,711.926C1131.48,709.661 1131.16,709.338 1129.22,709.338C1127.28,709.338 1117.57,709.985 1087.48,709.985L993.967,709.985L993.967,708.69C993.967,692.512 994.615,687.011 995.909,683.129C996.88,680.864 997.85,679.246 997.85,676.657C997.85,675.686 996.232,674.392 993.644,674.069C987.172,673.098 980.054,672.451 972.288,672.451C974.553,684.099 974.553,689.923 974.553,708.043L974.553,709.985L888.484,709.985C858.392,709.985 848.685,709.338 846.744,709.338C844.479,709.338 844.155,709.661 844.155,711.926L844.155,725.192C844.155,727.457 844.479,727.781 846.744,727.781C848.685,727.781 858.392,727.134 888.484,727.134L974.553,727.134L974.553,755.608L929.254,755.608C896.573,755.608 884.925,754.961 883.307,754.961C881.042,754.961 880.719,755.284 880.719,757.549C880.719,759.167 881.366,766.609 881.366,787.965L881.366,834.558C881.366,855.914 880.719,863.032 880.719,864.974C880.719,867.239 881.042,867.562 883.307,867.562C884.925,867.562 896.573,866.915 929.254,866.915L963.876,866.915C930.872,900.89 886.866,924.187 835.743,939.071C838.978,942.306 841.891,945.542 844.155,950.396C845.773,953.955 846.744,955.573 848.685,955.573C849.656,955.573 851.274,954.926 853.539,953.955C902.074,935.188 946.403,911.567 975.848,875.975C975.524,922.892 973.583,957.191 973.583,961.72C973.583,963.985 973.906,963.985 976.171,963.985L992.673,963.985C994.938,963.985 995.262,963.985 995.262,961.72C995.262,957.191 992.673,921.598 992.673,873.71C1030.21,915.774 1080.68,939.071 1125.34,954.602C1130.84,956.543 1131.16,956.867 1134.07,950.719C1136.66,945.542 1139.57,941.659 1143.13,938.1C1088.77,923.216 1040.56,901.213 1004.32,866.915L1045.41,866.915ZM1074.86,851.384L993.967,851.384L993.967,817.733L1074.86,817.733L1074.86,851.384ZM1074.86,802.525L993.967,802.525L993.967,771.139L1074.86,771.139L1074.86,802.525ZM974.553,851.384L900.133,851.384L900.133,817.733L974.553,817.733L974.553,851.384ZM974.553,802.525L900.133,802.525L900.133,771.139L974.553,771.139L974.553,802.525Z" style="fill-rule:nonzero;"/>
            <path d="M1403.6,790.553C1403.6,772.433 1404.25,766.609 1404.25,764.991C1404.25,762.726 1403.93,762.403 1401.66,762.403C1399.72,762.403 1388.72,763.05 1357.01,763.05L1265.44,763.05C1234.06,763.05 1222.73,762.403 1221.11,762.403C1218.52,762.403 1218.2,762.726 1218.2,764.991C1218.2,766.609 1218.85,772.433 1218.85,790.553L1218.85,820.321C1218.85,838.118 1218.2,843.942 1218.2,845.883C1218.2,848.148 1218.52,848.472 1221.11,848.472C1222.73,848.472 1234.06,847.825 1265.44,847.825L1302,847.825L1302,925.481C1302,935.835 1298.12,940.365 1283.88,940.365C1275.15,940.365 1268.35,939.718 1257.03,938.424C1260.26,942.954 1262.2,947.16 1263.5,952.661C1265.12,959.456 1265.44,959.132 1271.59,959.132C1299.74,959.456 1307.83,957.838 1314.62,952.337C1320.77,947.16 1323.04,940.689 1323.04,929.04C1323.04,918.039 1322.39,904.125 1322.39,889.565L1322.39,847.825L1357.01,847.825C1388.72,847.825 1399.72,848.472 1401.66,848.472C1403.93,848.472 1404.25,848.148 1404.25,845.883C1404.25,843.942 1403.6,838.118 1403.6,820.321L1403.6,790.553ZM1384.19,830.028L1238.26,830.028L1238.26,780.846L1384.19,780.846L1384.19,830.028ZM1450.85,716.456C1450.85,714.191 1450.52,713.867 1448.26,713.867C1446.64,713.867 1436.29,714.515 1405.55,714.515L1320.12,714.515L1320.12,706.102C1320.12,691.865 1320.45,687.011 1321.74,683.776C1322.71,681.511 1323.68,679.569 1323.68,677.628C1323.68,676.334 1322.07,675.363 1319.8,675.039C1312.36,674.069 1305.56,673.422 1297.47,673.422C1299.41,681.187 1299.74,689.6 1299.74,706.102L1299.74,714.515L1219.82,714.515C1188.76,714.515 1178.73,713.867 1176.78,713.867C1174.52,713.867 1174.19,714.191 1174.19,716.456L1174.19,730.693C1174.19,732.958 1174.52,733.282 1176.78,733.282C1178.73,733.282 1188.76,732.634 1219.82,732.634L1405.55,732.634C1436.29,732.634 1446.64,733.282 1448.26,733.282C1450.52,733.282 1450.85,732.958 1450.85,730.693L1450.85,716.456ZM1257.67,878.887C1257.67,877.269 1256.7,875.975 1254.76,874.681C1250.23,871.769 1243.12,867.886 1236.97,865.297C1235.67,871.121 1231.79,879.211 1227.91,884.064C1214.64,900.89 1196.2,916.745 1170.63,931.629C1174.19,933.57 1178.08,936.806 1180.99,940.689C1183.26,943.601 1184.23,944.895 1185.84,944.895C1187.14,944.895 1188.76,943.924 1191.34,942.306C1215.93,926.775 1233.41,909.626 1246.03,892.153C1249.91,886.653 1251.85,884.711 1254.44,883.093C1256.06,882.123 1257.67,880.829 1257.67,878.887ZM1369.63,873.386C1366.72,875.328 1366.07,875.975 1367.69,878.24C1387.1,904.773 1408.78,925.481 1435.96,943.601C1438.23,945.219 1439.84,945.866 1440.82,945.866C1442.43,945.866 1443.4,944.571 1445.35,941.012C1448.58,935.511 1450.85,932.923 1455.05,929.687C1423.99,913.185 1401.66,893.124 1383.22,868.533C1381.92,866.592 1381.28,866.268 1377.72,868.533L1369.63,873.386Z" style="fill-rule:nonzero;"/>
            <path d="M1774.74,912.862C1774.74,910.597 1774.41,910.273 1772.15,910.273C1770.53,910.273 1760.18,910.92 1729.44,910.92L1643.05,910.92L1643.05,732.634L1707.76,732.634C1740.44,732.634 1750.79,733.282 1752.73,733.282C1755,733.282 1755.32,732.958 1755.32,730.693L1755.32,714.838C1755.32,712.573 1755,712.25 1752.73,712.25C1750.79,712.25 1740.44,712.897 1707.76,712.897L1563.12,712.897C1530.44,712.897 1519.77,712.25 1518.15,712.25C1515.88,712.25 1515.56,712.573 1515.56,714.838L1515.56,730.693C1515.56,732.958 1515.88,733.282 1518.15,733.282C1519.77,733.282 1530.44,732.634 1563.12,732.634L1621.69,732.634L1621.69,910.92L1541.44,910.92C1510.7,910.92 1500.35,910.273 1498.73,910.273C1496.47,910.273 1496.14,910.597 1496.14,912.862L1496.14,929.04C1496.14,931.305 1496.47,931.629 1498.73,931.629C1500.35,931.629 1510.7,930.982 1541.44,930.982L1729.44,930.982C1760.18,930.982 1770.53,931.629 1772.15,931.629C1774.41,931.629 1774.74,931.305 1774.74,929.04L1774.74,912.862Z" style="fill-rule:nonzero;"/>
            <path d="M2054.62,880.829C2085.36,880.829 2095.39,881.476 2097.33,881.476C2099.6,881.476 2099.92,881.152 2099.92,878.887L2099.92,867.239C2099.92,864.974 2099.6,864.65 2097.33,864.65C2095.39,864.65 2085.36,865.297 2054.62,865.297L1965.64,865.297L1965.64,839.412L2020.33,839.412C2053.33,839.412 2064.33,840.059 2066.27,840.059C2068.54,840.059 2068.86,839.735 2068.86,837.794L2068.86,826.469C2068.86,823.881 2068.54,823.557 2066.27,823.557C2064.33,823.557 2053.33,824.204 2020.33,824.204L1965.64,824.204L1965.64,799.289L2034.88,799.289C2067.57,799.289 2077.92,799.937 2079.86,799.937C2082.13,799.937 2082.45,799.613 2082.45,797.348L2082.45,785.7C2082.45,783.435 2082.13,783.111 2079.86,783.111C2077.92,783.111 2067.57,783.758 2034.88,783.758L2006.74,783.758C2011.27,776.963 2014.5,771.463 2017.41,765.962C2018.71,763.373 2020.33,760.461 2021.94,759.167C2023.24,758.196 2024.86,756.902 2024.86,755.284C2024.86,753.666 2023.24,752.372 2021.3,751.725C2014.82,749.784 2009.97,748.489 2004.15,747.195C2002.85,752.696 2001.88,756.255 2000.26,760.138C1996.06,769.521 1992.82,776.316 1988.29,783.758L1928.43,783.758C1923.25,770.492 1917.43,758.196 1911.28,749.46C1909.99,747.519 1909.34,747.519 1906.11,748.813L1897.69,751.725C1894.13,753.019 1893.49,753.666 1895.1,755.931C1899.96,763.05 1904.81,772.757 1908.69,783.758L1882.81,783.758C1850.45,783.758 1839.77,783.111 1838.16,783.111C1835.57,783.111 1835.24,783.435 1835.24,785.7L1835.24,797.348C1835.24,799.613 1835.57,799.937 1838.16,799.937C1839.77,799.937 1850.45,799.289 1882.81,799.289L1946.88,799.289L1946.88,824.204L1898.66,824.204C1865.66,824.204 1854.33,823.557 1852.72,823.557C1850.45,823.557 1850.13,823.881 1850.13,826.469L1850.13,837.794C1850.13,839.735 1850.45,840.059 1852.72,840.059C1854.33,840.059 1865.66,839.412 1898.66,839.412L1946.88,839.412L1946.88,865.297L1864.04,865.297C1833.3,865.297 1823.27,864.65 1821.65,864.65C1819.07,864.65 1818.74,864.974 1818.74,867.239L1818.74,878.887C1818.74,881.152 1819.07,881.476 1821.65,881.476C1823.27,881.476 1833.3,880.829 1864.04,880.829L1931.34,880.829C1903.84,906.714 1865.34,923.863 1812.27,937.776C1815.83,940.689 1818.74,944.248 1821.01,948.778C1823.92,954.602 1824.57,954.602 1830.39,952.661C1879.9,937.129 1915.49,919.333 1947.52,887.623C1947.2,936.482 1945.9,956.22 1945.9,961.72C1945.9,963.985 1946.23,964.309 1948.49,964.309L1964.02,964.309C1966.29,964.309 1966.61,963.985 1966.61,961.72C1966.61,956.22 1965,935.835 1965,886.976C1997.67,917.392 2034.88,936.806 2086.66,951.043C2092.8,952.984 2092.8,952.984 2096.04,946.836C2098.63,942.306 2101.54,938.1 2104.45,935.188C2049.12,922.245 2011.91,905.743 1980.85,880.829L2054.62,880.829ZM2099.92,730.369C2099.92,727.781 2099.6,727.457 2097.33,727.457C2095.39,727.457 2085.36,728.104 2054.62,728.104L2041.03,728.104C2047.18,719.692 2053.01,710.955 2058.18,702.543C2059.8,699.954 2061.42,697.689 2063.68,696.071C2065.62,694.777 2066.27,693.806 2066.27,691.865C2066.27,690.571 2064.98,689.276 2063.04,688.629C2058.18,686.688 2051.06,684.099 2044.59,682.481C2043.62,688.629 2041.68,693.159 2039.41,697.689C2033.91,708.367 2028.41,718.074 2021.3,728.104L1991.2,728.104L1991.2,703.837C1991.2,691.541 1992.17,686.041 1993.14,683.452C1993.79,681.834 1994.44,680.54 1994.44,679.246C1994.44,677.628 1993.14,676.657 1991.2,676.334C1986.03,675.686 1977.94,675.039 1971.14,674.716C1973.41,683.129 1973.41,692.512 1973.41,704.16L1973.41,728.104L1938.79,728.104L1938.79,703.837C1938.79,691.541 1939.43,685.717 1940.73,683.452C1941.7,681.511 1942.02,680.54 1942.02,678.922C1942.02,677.304 1940.73,676.334 1938.79,676.01C1933.61,675.363 1925.84,674.716 1919.05,674.392C1920.99,682.805 1920.99,692.188 1920.99,703.837L1920.99,728.104L1878.28,728.104L1888.96,722.28C1891.55,720.662 1891.87,720.015 1890.9,718.074C1883.78,705.778 1875.69,694.13 1867.6,685.394C1866.31,683.776 1865.34,683.776 1863.07,685.07L1854.33,689.6C1851.1,691.218 1851.1,692.188 1852.39,693.806C1861.13,703.513 1868.25,713.867 1875.37,728.104L1864.04,728.104C1833.3,728.104 1823.27,727.457 1821.65,727.457C1819.07,727.457 1818.74,727.781 1818.74,730.369L1818.74,742.018C1818.74,744.283 1819.07,744.606 1821.65,744.606C1823.27,744.606 1833.3,743.959 1864.04,743.959L2054.62,743.959C2085.36,743.959 2095.39,744.606 2097.33,744.606C2099.6,744.606 2099.92,744.283 2099.92,742.018L2099.92,730.369Z" style="fill-rule:nonzero;"/>
            <path d="M2373.98,785.052C2405.05,785.052 2415.4,785.7 2417.02,785.7C2419.28,785.7 2419.61,785.376 2419.61,782.787L2419.61,767.903C2419.61,765.638 2419.28,765.315 2417.02,765.315C2415.4,765.315 2405.05,765.962 2373.98,765.962L2286.95,765.962C2288.89,749.136 2289.86,731.664 2290.18,713.544C2290.5,698.66 2291.15,692.512 2292.77,689.276C2293.74,687.011 2294.71,685.717 2294.71,683.129C2294.71,681.511 2293.42,680.216 2290.18,679.569C2283.71,678.599 2274.65,677.951 2267.21,677.628C2268.83,687.335 2269.15,696.071 2268.83,714.191C2268.5,732.634 2267.85,749.784 2266.24,765.962L2189.87,765.962C2158.81,765.962 2148.46,765.315 2146.84,765.315C2144.57,765.315 2144.25,765.638 2144.25,767.903L2144.25,782.787C2144.25,785.376 2144.57,785.7 2146.84,785.7C2148.46,785.7 2158.81,785.052 2189.87,785.052L2263.97,785.052C2260.41,808.349 2254.59,829.058 2245.2,848.472C2226.44,887.3 2192.14,921.598 2137.46,944.248C2141.66,947.16 2145.87,950.719 2149.43,955.249C2151.69,958.485 2152.66,959.779 2154.28,959.779C2155.58,959.779 2156.87,959.132 2159.46,958.161C2209.29,933.247 2241.64,902.508 2263.97,856.561C2271.74,840.383 2277.56,821.939 2281.77,801.878C2302.8,871.445 2349.72,927.746 2405.69,957.191C2407.96,958.485 2409.58,959.132 2410.55,959.132C2412.16,959.132 2413.14,957.838 2415.08,954.278C2418.31,949.101 2422.52,944.248 2426.73,940.689C2361.04,914.803 2313.8,852.678 2293.09,785.052L2373.98,785.052Z" style="fill-rule:nonzero;"/>
            <path d="M2748.03,856.884C2748.03,854.62 2747.7,854.296 2745.44,854.296C2743.82,854.296 2733.79,854.943 2703.38,854.943L2617.31,854.943L2617.31,851.06C2617.31,845.883 2617.31,842.324 2617.63,840.059C2638.02,828.411 2654.52,817.733 2667.46,807.379C2674.9,801.231 2677.82,799.937 2681.05,798.966C2682.99,798.319 2684.29,797.024 2684.29,794.759C2684.29,792.494 2682.35,789.259 2677.82,784.729C2672.64,779.552 2670.7,777.934 2668.76,777.934C2667.46,777.934 2666.49,778.257 2665.52,778.581C2664.55,778.905 2662.28,779.228 2657.11,779.228L2566.51,779.228C2536.09,779.228 2526.06,778.581 2524.44,778.581C2522.18,778.581 2521.86,778.905 2521.86,781.17L2521.86,794.436C2521.86,796.701 2522.18,797.024 2524.44,797.024C2526.06,797.024 2536.09,796.377 2566.51,796.377L2653.55,796.377C2640.28,807.702 2627.01,817.086 2611.48,826.146C2606.63,824.851 2601.13,823.881 2594.98,822.91C2596.6,830.999 2597.25,840.706 2597.25,854.943L2508.91,854.943C2478.5,854.943 2468.47,854.296 2466.85,854.296C2464.58,854.296 2464.26,854.62 2464.26,856.884L2464.26,871.121C2464.26,873.386 2464.58,873.71 2466.85,873.71C2468.47,873.71 2478.5,873.063 2508.91,873.063L2597.25,873.063L2597.25,929.04C2597.25,939.394 2592.39,941.659 2583.01,941.659C2569.74,941.659 2560.68,941.012 2549.36,939.718C2552.27,943.601 2554.53,949.748 2556.15,954.602C2557.77,961.073 2557.77,960.75 2563.92,960.75C2594.01,961.397 2602.1,959.779 2608.89,955.573C2615.37,951.043 2617.63,945.866 2617.63,934.541C2617.63,926.775 2617.31,913.509 2617.31,906.714L2617.31,873.063L2703.38,873.063C2733.79,873.063 2743.82,873.71 2745.44,873.71C2747.7,873.71 2748.03,873.386 2748.03,871.121L2748.03,856.884ZM2737.35,749.136C2737.35,740.076 2738,734.899 2738,733.282C2738,731.34 2737.68,731.017 2735.09,731.017C2733.47,731.017 2722.14,731.664 2690.43,731.664L2676.84,731.664C2684.93,719.692 2690.43,709.985 2696.26,698.983C2697.88,696.071 2700.46,692.836 2702.41,691.541C2704.02,690.571 2704.67,689.276 2704.67,687.982C2704.67,686.364 2703.7,685.07 2701.11,683.776C2695.93,681.187 2689.14,678.599 2682.02,676.981C2681.05,683.129 2679.43,688.306 2677.82,691.865C2671.99,705.778 2665.84,718.074 2656.78,731.664L2522.18,731.664C2490.79,731.664 2479.47,731.017 2477.53,731.017C2475.26,731.017 2474.94,731.34 2474.94,733.282C2474.94,735.223 2475.59,740.076 2475.59,751.078L2475.59,762.403C2475.59,790.877 2474.94,795.083 2474.94,797.024C2474.94,799.289 2475.26,799.613 2477.53,799.613L2492.41,799.613C2494.68,799.613 2495,799.289 2495,797.024L2495,748.813L2717.94,748.813L2717.94,797.024C2717.94,799.289 2718.26,799.613 2720.53,799.613L2735.09,799.613C2737.68,799.613 2738,799.289 2738,797.024C2738,795.407 2737.35,791.2 2737.35,762.403L2737.35,749.136ZM2511.18,683.452C2507.29,685.07 2506.97,686.041 2508.26,687.658C2516.68,698.013 2526.06,711.926 2531.89,724.222C2532.53,725.839 2532.86,726.487 2533.83,726.487C2534.8,726.487 2535.77,725.839 2538.03,724.869L2546.77,720.662C2550.65,718.721 2550.98,718.721 2549.68,716.456C2542.56,703.837 2534.8,691.865 2525.41,680.216C2523.8,678.275 2522.83,678.275 2519.27,679.893L2511.18,683.452ZM2586.89,677.628C2583.33,678.922 2582.36,679.569 2583.98,681.834C2591.42,693.483 2597.57,704.16 2602.75,720.015C2603.72,722.927 2604.37,722.927 2608.89,720.986L2617.63,717.75C2621.84,715.809 2622.16,715.809 2621.19,713.544C2616.01,700.601 2609.22,687.335 2601.13,675.363C2599.84,673.422 2598.86,673.422 2595.63,674.716L2586.89,677.628Z" style="fill-rule:nonzero;"/>
        </g>
        <g transform="matrix(0.322777,0,0,0.389096,87.9866,542.958)">
            <path d="M884.982,892.954L884.982,736.384L825.735,736.384L825.735,718.847L965.874,718.847L965.874,736.384L907.575,736.384L907.575,892.954L884.982,892.954Z" style="fill-rule:nonzero;"/>
            <path d="M1039.03,896.43C1022.59,896.43 1008.61,890.874 997.078,879.762C985.544,868.65 979.778,852.14 979.778,830.231C979.778,808.429 985.544,791.971 997.078,780.859C1008.61,769.747 1022.59,764.191 1039.03,764.191C1055.35,764.191 1069.28,769.747 1080.81,780.859C1092.35,791.971 1098.11,808.429 1098.11,830.231C1098.11,852.14 1092.35,868.65 1080.81,879.762C1069.28,890.874 1055.35,896.43 1039.03,896.43ZM1039.03,879.051C1050.19,879.051 1059.19,874.575 1066.04,865.622C1072.89,856.669 1076.31,844.872 1076.31,830.231C1076.31,815.696 1072.89,803.952 1066.04,794.999C1059.19,786.046 1050.19,781.57 1039.03,781.57C1027.76,781.57 1018.7,786.046 1011.85,794.999C1005,803.952 1001.58,815.696 1001.58,830.231C1001.58,844.872 1005,856.669 1011.85,865.622C1018.7,874.575 1027.76,879.051 1039.03,879.051Z" style="fill-rule:nonzero;"/>
            <path d="M1146.78,892.954L1124.97,892.954L1124.97,711.895L1146.78,711.895L1146.78,827.388L1202.39,767.667L1226.56,767.667L1172.21,825.808L1228.62,892.954L1202.39,892.954L1146.78,827.388L1146.78,892.954Z" style="fill-rule:nonzero;"/>
            <path d="M1289.44,887.583L1235.57,767.667L1258.63,767.667L1300.66,860.724L1339.84,767.667L1360.86,767.667L1308.09,893.112C1300.92,909.965 1294.95,921.156 1290.15,926.686C1285.36,932.215 1280.31,936.086 1274.99,938.298C1269.67,940.51 1262.53,941.616 1253.58,941.616L1237.94,941.616L1237.94,924.237L1249.63,924.237C1255.42,924.237 1260.5,923.473 1264.87,921.946C1269.25,920.419 1272.85,917.97 1275.7,914.599C1278.54,911.229 1282.38,903.803 1287.23,892.322L1289.44,887.583Z" style="fill-rule:nonzero;"/>
            <path d="M1433.06,896.43C1416.63,896.43 1402.64,890.874 1391.11,879.762C1379.58,868.65 1373.81,852.14 1373.81,830.231C1373.81,808.429 1379.58,791.971 1391.11,780.859C1402.64,769.747 1416.63,764.191 1433.06,764.191C1449.38,764.191 1463.31,769.747 1474.85,780.859C1486.38,791.971 1492.15,808.429 1492.15,830.231C1492.15,852.14 1486.38,868.65 1474.85,879.762C1463.31,890.874 1449.38,896.43 1433.06,896.43ZM1433.06,879.051C1444.22,879.051 1453.23,874.575 1460.07,865.622C1466.92,856.669 1470.34,844.872 1470.34,830.231C1470.34,815.696 1466.92,803.952 1460.07,794.999C1453.23,786.046 1444.22,781.57 1433.06,781.57C1421.79,781.57 1412.73,786.046 1405.88,794.999C1399.04,803.952 1395.61,815.696 1395.61,830.231C1395.61,844.872 1399.04,856.669 1405.88,865.622C1412.73,874.575 1421.79,879.051 1433.06,879.051Z" style="fill-rule:nonzero;"/>
            <rect x="1586.95" y="718.847" width="22.751" height="174.107" style="fill-rule:nonzero;"/>
            <path d="M1663.42,892.954L1642.57,892.954L1642.57,767.667L1663.42,767.667L1663.42,789.312C1667.85,782.465 1672.14,777.409 1676.3,774.144C1680.46,770.879 1684.8,768.404 1689.33,766.719C1693.86,765.033 1698.92,764.191 1704.5,764.191C1712.29,764.191 1719.33,765.797 1725.59,769.01C1731.86,772.222 1736.7,776.962 1740.13,783.229C1743.55,789.496 1745.26,799.476 1745.26,813.168L1745.26,892.954L1724.41,892.954L1724.41,822.174C1724.41,810.904 1723.67,802.951 1722.19,798.317C1720.72,793.683 1717.8,790.022 1713.43,787.337C1709.06,784.651 1704.34,783.308 1699.29,783.308C1693.18,783.308 1687.36,785.098 1681.83,788.68C1676.3,792.261 1671.85,797.29 1668.48,803.768C1665.11,810.245 1663.42,819.435 1663.42,831.337L1663.42,892.954Z" style="fill-rule:nonzero;"/>
            <path d="M1768.8,859.934L1789.66,859.934L1789.66,860.25C1789.66,865.727 1791.74,870.23 1795.9,873.758C1800.06,877.287 1807.04,879.051 1816.83,879.051C1825.36,879.051 1832.32,876.944 1837.69,872.731C1843.06,868.518 1845.75,863.568 1845.75,857.88C1845.75,850.191 1840.48,844.767 1829.95,841.607L1819.36,838.289L1812.25,836.077L1797.87,831.653C1781.34,825.544 1773.07,815.486 1773.07,801.477C1773.07,791.576 1777.07,782.886 1785.08,775.408C1793.08,767.93 1804.93,764.191 1820.62,764.191C1836.21,764.191 1847.3,767.377 1853.88,773.749C1860.47,780.122 1863.76,787.205 1863.76,794.999L1863.76,795.473L1842.74,795.473L1842.74,794.999C1842.74,790.786 1840.64,787.495 1836.42,785.125C1832.21,782.755 1826.58,781.57 1819.52,781.57C1811.2,781.57 1804.8,783.308 1800.32,786.784C1795.85,790.259 1793.61,794.525 1793.61,799.581C1793.61,803.478 1795.06,806.638 1797.95,809.061C1800.85,811.483 1805.72,813.695 1812.57,815.696L1822.52,818.54L1829.95,820.594C1840.06,823.543 1846.38,825.597 1848.9,826.756C1851.43,827.914 1853.96,829.442 1856.49,831.337C1859.96,834.076 1862.55,837.341 1864.23,841.133C1865.91,844.925 1866.76,849.349 1866.76,854.404C1866.76,866.306 1862.52,876.286 1854.04,884.344C1845.56,892.401 1833.16,896.43 1816.83,896.43C1806.51,896.43 1797.95,894.903 1791.16,891.848C1784.37,888.794 1778.94,884.554 1774.89,879.13C1770.83,873.706 1768.8,867.412 1768.8,860.25L1768.8,859.934Z" style="fill-rule:nonzero;"/>
            <path d="M1970.24,875.259L1970.24,892.796C1960.13,895.219 1952.39,896.43 1947.02,896.43C1939.22,896.43 1932.19,894.85 1925.93,891.69C1919.66,888.531 1914.89,883.975 1911.63,878.024C1908.36,872.073 1906.73,862.567 1906.73,849.507L1906.73,785.046L1885.09,785.046L1885.09,767.667L1906.73,767.667L1906.73,737.964L1927.74,737.964L1927.74,767.667L1964.24,767.667L1964.24,785.046L1927.74,785.046L1927.74,843.503C1927.74,854.562 1928.59,862.251 1930.27,866.57C1931.96,870.888 1934.64,874.048 1938.33,876.049C1942.02,878.05 1946.44,879.051 1951.6,879.051C1955.71,879.051 1961.92,877.787 1970.24,875.259Z" style="fill-rule:nonzero;"/>
            <path d="M1995.52,767.667L2016.38,767.667L2016.38,892.954L1995.52,892.954L1995.52,767.667ZM1995.52,739.86L1995.52,718.847L2016.38,718.847L2016.38,739.86L1995.52,739.86Z" style="fill-rule:nonzero;"/>
            <path d="M2126.18,875.259L2126.18,892.796C2116.07,895.219 2108.33,896.43 2102.96,896.43C2095.16,896.43 2088.13,894.85 2081.86,891.69C2075.6,888.531 2070.83,883.975 2067.57,878.024C2064.3,872.073 2062.67,862.567 2062.67,849.507L2062.67,785.046L2041.02,785.046L2041.02,767.667L2062.67,767.667L2062.67,737.964L2083.68,737.964L2083.68,767.667L2120.18,767.667L2120.18,785.046L2083.68,785.046L2083.68,843.503C2083.68,854.562 2084.52,862.251 2086.21,866.57C2087.89,870.888 2090.58,874.048 2094.27,876.049C2097.95,878.05 2102.38,879.051 2107.54,879.051C2111.65,879.051 2117.86,877.787 2126.18,875.259Z" style="fill-rule:nonzero;"/>
            <path d="M2231.56,767.667L2252.42,767.667L2252.42,892.954L2231.56,892.954L2231.56,871.151C2227.24,877.787 2223,882.79 2218.84,886.161C2214.68,889.531 2210.39,892.085 2205.97,893.823C2201.54,895.561 2196.7,896.43 2191.43,896.43C2179.85,896.43 2170.02,893.165 2161.97,886.635C2153.91,880.104 2149.88,866.938 2149.88,847.137L2149.88,767.667L2170.74,767.667L2170.74,838.289C2170.74,856.616 2173.16,867.702 2178,871.546C2182.85,875.391 2188.85,877.313 2196.01,877.313C2202.23,877.313 2208.1,875.496 2213.63,871.862C2219.16,868.229 2223.53,863.12 2226.74,856.537C2229.96,849.954 2231.56,840.87 2231.56,829.284L2231.56,767.667Z" style="fill-rule:nonzero;"/>
            <path d="M2362.06,875.259L2362.06,892.796C2351.95,895.219 2344.21,896.43 2338.84,896.43C2331.04,896.43 2324.01,894.85 2317.75,891.69C2311.48,888.531 2306.71,883.975 2303.45,878.024C2300.18,872.073 2298.55,862.567 2298.55,849.507L2298.55,785.046L2276.91,785.046L2276.91,767.667L2298.55,767.667L2298.55,737.964L2319.56,737.964L2319.56,767.667L2356.06,767.667L2356.06,785.046L2319.56,785.046L2319.56,843.503C2319.56,854.562 2320.41,862.251 2322.09,866.57C2323.78,870.888 2326.46,874.048 2330.15,876.049C2333.84,878.05 2338.26,879.051 2343.42,879.051C2347.53,879.051 2353.74,877.787 2362.06,875.259Z" style="fill-rule:nonzero;"/>
            <path d="M2469.34,860.724L2490.2,860.724L2490.2,861.83C2490.2,867.412 2487.98,873.074 2483.56,878.814C2479.14,884.554 2473.29,888.926 2466.02,891.927C2458.75,894.929 2450.43,896.43 2441.06,896.43C2421.99,896.43 2407.28,890.268 2396.9,877.945C2386.53,865.622 2381.34,850.033 2381.34,831.179C2381.34,811.904 2386.82,795.921 2397.77,783.229C2408.72,770.537 2422.84,764.191 2440.11,764.191C2449.59,764.191 2458.2,766.245 2465.94,770.352C2473.68,774.46 2479.79,780.859 2484.27,789.549C2488.75,798.238 2490.99,810.377 2490.99,825.966L2490.99,832.917L2402.03,832.917C2402.03,846.294 2405.64,857.327 2412.86,866.017C2420.07,874.706 2430.05,879.051 2442.8,879.051C2451.96,879.051 2458.68,877.287 2462.94,873.758C2467.21,870.23 2469.34,866.254 2469.34,861.83L2469.34,860.724ZM2403.3,817.276L2470.92,817.276L2470.92,814.748C2470.92,808.955 2469.52,803.294 2466.73,797.764C2463.94,792.234 2460.07,788.153 2455.12,785.52C2450.17,782.886 2444.43,781.57 2437.9,781.57C2430.11,781.57 2422.92,784.703 2416.33,790.97C2409.75,797.237 2405.41,806.006 2403.3,817.276Z" style="fill-rule:nonzero;"/>
            <path d="M2640.77,896.43C2624.34,896.43 2610.36,890.874 2598.83,879.762C2587.29,868.65 2581.53,852.14 2581.53,830.231C2581.53,808.429 2587.29,791.971 2598.83,780.859C2610.36,769.747 2624.34,764.191 2640.77,764.191C2657.1,764.191 2671.03,769.747 2682.56,780.859C2694.1,791.971 2699.86,808.429 2699.86,830.231C2699.86,852.14 2694.1,868.65 2682.56,879.762C2671.03,890.874 2657.1,896.43 2640.77,896.43ZM2640.77,879.051C2651.94,879.051 2660.94,874.575 2667.79,865.622C2674.64,856.669 2678.06,844.872 2678.06,830.231C2678.06,815.696 2674.64,803.952 2667.79,794.999C2660.94,786.046 2651.94,781.57 2640.77,781.57C2629.5,781.57 2620.45,786.046 2613.6,794.999C2606.75,803.952 2603.33,815.696 2603.33,830.231C2603.33,844.872 2606.75,856.669 2613.6,865.622C2620.45,874.575 2629.5,879.051 2640.77,879.051Z" style="fill-rule:nonzero;"/>
            <path d="M2758.95,892.954L2738.1,892.954L2738.1,785.046L2719.77,785.046L2719.77,767.667L2738.1,767.667L2738.1,761.821C2738.1,743.599 2741.94,730.723 2749.63,723.192C2757.32,715.661 2767.33,711.895 2779.65,711.895C2784.28,711.895 2790.13,712.422 2797.19,713.475L2797.19,730.538C2791.39,729.801 2786.76,729.432 2783.28,729.432C2776.54,729.432 2770.8,731.065 2766.06,734.33C2761.32,737.595 2758.95,745.442 2758.95,757.871L2758.95,767.667L2795.61,767.667L2795.61,785.046L2758.95,785.046L2758.95,892.954Z" style="fill-rule:nonzero;"/>
            <path d="M2930.54,892.954L2930.54,736.384L2871.3,736.384L2871.3,718.847L3011.44,718.847L3011.44,736.384L2953.14,736.384L2953.14,892.954L2930.54,892.954Z" style="fill-rule:nonzero;"/>
            <path d="M3113.34,860.724L3134.2,860.724L3134.2,861.83C3134.2,867.412 3131.98,873.074 3127.56,878.814C3123.14,884.554 3117.29,888.926 3110.02,891.927C3102.76,894.929 3094.43,896.43 3085.06,896.43C3066,896.43 3051.28,890.268 3040.9,877.945C3030.53,865.622 3025.34,850.033 3025.34,831.179C3025.34,811.904 3030.82,795.921 3041.77,783.229C3052.72,770.537 3066.84,764.191 3084.11,764.191C3093.59,764.191 3102.2,766.245 3109.94,770.352C3117.69,774.46 3123.8,780.859 3128.27,789.549C3132.75,798.238 3134.99,810.377 3134.99,825.966L3134.99,832.917L3046.04,832.917C3046.04,846.294 3049.64,857.327 3056.86,866.017C3064.07,874.706 3074.05,879.051 3086.8,879.051C3095.96,879.051 3102.68,877.287 3106.94,873.758C3111.21,870.23 3113.34,866.254 3113.34,861.83L3113.34,860.724ZM3047.3,817.276L3114.92,817.276L3114.92,814.748C3114.92,808.955 3113.53,803.294 3110.73,797.764C3107.94,792.234 3104.07,788.153 3099.12,785.52C3094.17,782.886 3088.43,781.57 3081.9,781.57C3074.11,781.57 3066.92,784.703 3060.34,790.97C3053.75,797.237 3049.41,806.006 3047.3,817.276Z" style="fill-rule:nonzero;"/>
            <path d="M3241.95,860.724L3262.96,860.724L3262.96,861.83C3262.96,867.518 3260.83,873.179 3256.56,878.814C3252.3,884.449 3246.76,888.794 3239.97,891.848C3233.18,894.903 3224.94,896.43 3215.25,896.43C3196.81,896.43 3182.59,890.584 3172.59,878.893C3162.58,867.202 3157.58,850.981 3157.58,830.231C3157.58,809.587 3162.58,793.419 3172.59,781.728C3182.59,770.036 3196.81,764.191 3215.25,764.191C3224.94,764.191 3233.18,765.692 3239.97,768.694C3246.76,771.695 3252.3,775.856 3256.56,781.175C3260.83,786.494 3262.96,792.366 3262.96,798.791L3262.96,799.897L3241.95,799.897L3241.95,798.791C3242.16,794.157 3240.16,790.128 3235.94,786.705C3231.73,783.281 3225.2,781.57 3216.35,781.57C3205.93,781.57 3197.16,785.414 3190.05,793.103C3182.94,800.792 3179.38,813.168 3179.38,830.231C3179.38,847.4 3182.94,859.829 3190.05,867.518C3197.16,875.207 3205.93,879.051 3216.35,879.051C3225.2,879.051 3231.68,877.339 3235.78,873.916C3239.89,870.493 3241.95,866.464 3241.95,861.83L3241.95,860.724Z" style="fill-rule:nonzero;"/>
            <path d="M3309.72,892.954L3288.87,892.954L3288.87,711.895L3309.72,711.895L3309.72,789.312C3314.15,782.465 3318.44,777.409 3322.6,774.144C3326.76,770.879 3331.11,768.404 3335.64,766.719C3340.16,765.033 3345.22,764.191 3350.8,764.191C3358.6,764.191 3365.63,765.797 3371.89,769.01C3378.16,772.222 3383.01,776.962 3386.43,783.229C3389.85,789.496 3391.57,799.476 3391.57,813.168L3391.57,892.954L3370.71,892.954L3370.71,822.174C3370.71,810.904 3369.97,802.951 3368.5,798.317C3367.02,793.683 3364.18,790.022 3359.97,787.337C3355.75,784.651 3350.96,783.308 3345.59,783.308C3339.48,783.308 3333.66,785.098 3328.13,788.68C3322.6,792.261 3318.15,797.29 3314.78,803.768C3311.41,810.245 3309.72,819.435 3309.72,831.337L3309.72,892.954Z" style="fill-rule:nonzero;"/>
            <path d="M3443.7,892.954L3422.85,892.954L3422.85,767.667L3443.7,767.667L3443.7,789.312C3448.13,782.465 3452.42,777.409 3456.58,774.144C3460.74,770.879 3465.08,768.404 3469.61,766.719C3474.14,765.033 3479.2,764.191 3484.78,764.191C3492.58,764.191 3499.61,765.797 3505.87,769.01C3512.14,772.222 3516.99,776.962 3520.41,783.229C3523.83,789.496 3525.54,799.476 3525.54,813.168L3525.54,892.954L3504.69,892.954L3504.69,822.174C3504.69,810.904 3503.95,802.951 3502.48,798.317C3501,793.683 3498.08,790.022 3493.71,787.337C3489.34,784.651 3484.62,783.308 3479.57,783.308C3473.46,783.308 3467.64,785.098 3462.11,788.68C3456.58,792.261 3452.13,797.29 3448.76,803.768C3445.39,810.245 3443.7,819.435 3443.7,831.337L3443.7,892.954Z" style="fill-rule:nonzero;"/>
            <path d="M3610.07,896.43C3593.64,896.43 3579.66,890.874 3568.12,879.762C3556.59,868.65 3550.82,852.14 3550.82,830.231C3550.82,808.429 3556.59,791.971 3568.12,780.859C3579.66,769.747 3593.64,764.191 3610.07,764.191C3626.39,764.191 3640.32,769.747 3651.86,780.859C3663.39,791.971 3669.16,808.429 3669.16,830.231C3669.16,852.14 3663.39,868.65 3651.86,879.762C3640.32,890.874 3626.39,896.43 3610.07,896.43ZM3610.07,879.051C3621.23,879.051 3630.24,874.575 3637.09,865.622C3643.93,856.669 3647.36,844.872 3647.36,830.231C3647.36,815.696 3643.93,803.952 3637.09,794.999C3630.24,786.046 3621.23,781.57 3610.07,781.57C3598.8,781.57 3589.74,786.046 3582.89,794.999C3576.05,803.952 3572.62,815.696 3572.62,830.231C3572.62,844.872 3576.05,856.669 3582.89,865.622C3589.74,874.575 3598.8,879.051 3610.07,879.051Z" style="fill-rule:nonzero;"/>
            <rect x="3696.02" y="711.895" width="20.855" height="181.059" style="fill-rule:nonzero;"/>
            <path d="M3803.29,896.43C3786.86,896.43 3772.88,890.874 3761.35,879.762C3749.81,868.65 3744.05,852.14 3744.05,830.231C3744.05,808.429 3749.81,791.971 3761.35,780.859C3772.88,769.747 3786.86,764.191 3803.29,764.191C3819.62,764.191 3833.55,769.747 3845.08,780.859C3856.62,791.971 3862.38,808.429 3862.38,830.231C3862.38,852.14 3856.62,868.65 3845.08,879.762C3833.55,890.874 3819.62,896.43 3803.29,896.43ZM3803.29,879.051C3814.46,879.051 3823.46,874.575 3830.31,865.622C3837.16,856.669 3840.58,844.872 3840.58,830.231C3840.58,815.696 3837.16,803.952 3830.31,794.999C3823.46,786.046 3814.46,781.57 3803.29,781.57C3792.02,781.57 3782.96,786.046 3776.12,794.999C3769.27,803.952 3765.85,815.696 3765.85,830.231C3765.85,844.872 3769.27,856.669 3776.12,865.622C3782.96,874.575 3792.02,879.051 3803.29,879.051Z" style="fill-rule:nonzero;"/>
            <path d="M3975.5,866.412C3971.19,875.259 3965.63,881.895 3958.84,886.319C3952.04,890.742 3943.96,892.954 3934.58,892.954C3919.73,892.954 3907.46,887.109 3897.77,875.417C3888.08,863.726 3883.24,848.348 3883.24,829.284C3883.24,816.644 3885.4,805.163 3889.71,794.841C3894.03,784.519 3900.12,776.83 3907.96,771.774C3915.81,766.719 3925.05,764.191 3935.69,764.191C3943.48,764.191 3950.49,765.744 3956.7,768.852C3962.92,771.959 3969.18,778.252 3975.5,787.732L3975.5,767.667L3996.36,767.667L3996.36,870.045C3996.36,895.746 3993.65,912.73 3988.22,920.998C3982.8,929.266 3975.98,935.375 3967.76,939.325C3959.55,943.275 3949.86,945.25 3938.69,945.25C3928.37,945.25 3919.1,943.722 3910.89,940.668C3902.67,937.613 3896.43,933.4 3892.16,928.029C3887.9,922.657 3885.76,917.074 3885.76,911.281L3885.76,909.386L3906.62,909.386L3906.62,911.281C3906.62,916.758 3909.62,921.156 3915.62,924.474C3921.63,927.792 3929.21,929.451 3938.38,929.451C3945.85,929.451 3952.28,928.16 3957.65,925.58C3963.02,922.999 3967.34,918.812 3970.61,913.019C3973.87,907.226 3975.5,896.746 3975.5,881.579L3975.5,866.412ZM3975.5,826.598C3975.5,813.221 3972.06,802.372 3965.16,794.051C3958.26,785.73 3950.01,781.57 3940.43,781.57C3930.32,781.57 3921.89,785.757 3915.15,794.13C3908.41,802.504 3905.04,814.274 3905.04,829.442C3905.04,839.026 3906.38,847.4 3909.07,854.562C3911.75,861.725 3915.97,867.175 3921.71,870.914C3927.45,874.654 3933.53,876.523 3939.96,876.523C3950.49,876.523 3959.05,871.862 3965.63,862.541C3972.21,853.219 3975.5,841.238 3975.5,826.598Z" style="fill-rule:nonzero;"/>
            <path d="M4070.3,887.583L4016.42,767.667L4039.49,767.667L4081.52,860.724L4120.7,767.667L4141.71,767.667L4088.94,893.112C4081.78,909.965 4075.8,921.156 4071.01,926.686C4066.22,932.215 4061.16,936.086 4055.84,938.298C4050.52,940.51 4043.39,941.616 4034.43,941.616L4018.79,941.616L4018.79,924.237L4030.49,924.237C4036.28,924.237 4041.36,923.473 4045.73,921.946C4050.1,920.419 4053.71,917.97 4056.55,914.599C4059.4,911.229 4063.24,903.803 4068.09,892.322L4070.3,887.583Z" style="fill-rule:nonzero;"/>
        </g>
    </g>
</svg>
